<mxfile host="app.diagrams.net" modified="2023-01-13T13:19:36.552Z" agent="5.0 (Windows NT 10.0; Win64; x64) AppleWebKit/537.36 (KHTML, like Gecko) Chrome/108.0.0.0 Safari/537.36 Edg/108.0.1462.76" etag="-S8W1UejQV5NHl0dW4E6" version="20.8.1" type="github">
  <diagram id="C5RBs43oDa-KdzZeNtuy" name="Page-1">
    <mxGraphModel dx="234" dy="476" grid="1" gridSize="10" guides="1" tooltips="1" connect="1" arrows="1" fold="1" page="1" pageScale="1" pageWidth="827" pageHeight="1169" math="0" shadow="0">
      <root>
        <mxCell id="WIyWlLk6GJQsqaUBKTNV-0" />
        <mxCell id="WIyWlLk6GJQsqaUBKTNV-1" parent="WIyWlLk6GJQsqaUBKTNV-0" />
        <mxCell id="WIyWlLk6GJQsqaUBKTNV-2" value="" style="rounded=0;html=1;jettySize=auto;orthogonalLoop=1;fontSize=11;endArrow=block;endFill=0;endSize=8;strokeWidth=1;shadow=0;labelBackgroundColor=none;edgeStyle=orthogonalEdgeStyle;" parent="WIyWlLk6GJQsqaUBKTNV-1" edge="1">
          <mxGeometry relative="1" as="geometry">
            <mxPoint x="221.46" y="140" as="sourcePoint" />
            <mxPoint x="221.46" y="190" as="targetPoint" />
          </mxGeometry>
        </mxCell>
        <mxCell id="GvJyI9alPm6sD9IZf6iM-0" value="start" style="strokeWidth=2;html=1;shape=mxgraph.flowchart.start_1;whiteSpace=wrap;" vertex="1" parent="WIyWlLk6GJQsqaUBKTNV-1">
          <mxGeometry x="175" y="80" width="100" height="60" as="geometry" />
        </mxCell>
        <mxCell id="GvJyI9alPm6sD9IZf6iM-3" style="edgeStyle=orthogonalEdgeStyle;rounded=0;orthogonalLoop=1;jettySize=auto;html=1;exitX=0.5;exitY=1;exitDx=0;exitDy=0;entryX=0.5;entryY=0;entryDx=0;entryDy=0;" edge="1" parent="WIyWlLk6GJQsqaUBKTNV-1" source="GvJyI9alPm6sD9IZf6iM-1" target="GvJyI9alPm6sD9IZf6iM-2">
          <mxGeometry relative="1" as="geometry" />
        </mxCell>
        <mxCell id="GvJyI9alPm6sD9IZf6iM-1" value="&amp;nbsp;print == Program Sorting ==&quot; + &quot;\n&quot; + &quot;====================" style="rounded=0;whiteSpace=wrap;html=1;" vertex="1" parent="WIyWlLk6GJQsqaUBKTNV-1">
          <mxGeometry x="156.88" y="190" width="130" height="50" as="geometry" />
        </mxCell>
        <mxCell id="GvJyI9alPm6sD9IZf6iM-9" style="edgeStyle=orthogonalEdgeStyle;rounded=0;orthogonalLoop=1;jettySize=auto;html=1;exitX=0.5;exitY=1;exitDx=0;exitDy=0;" edge="1" parent="WIyWlLk6GJQsqaUBKTNV-1" source="GvJyI9alPm6sD9IZf6iM-2" target="GvJyI9alPm6sD9IZf6iM-8">
          <mxGeometry relative="1" as="geometry" />
        </mxCell>
        <mxCell id="GvJyI9alPm6sD9IZf6iM-2" value="&amp;nbsp; &amp;nbsp;Masukkan berapa banyak angka yang ingin anda Sorting :" style="shape=parallelogram;perimeter=parallelogramPerimeter;whiteSpace=wrap;html=1;fixedSize=1;rounded=0;" vertex="1" parent="WIyWlLk6GJQsqaUBKTNV-1">
          <mxGeometry x="150" y="270" width="140" height="60" as="geometry" />
        </mxCell>
        <mxCell id="GvJyI9alPm6sD9IZf6iM-11" style="edgeStyle=orthogonalEdgeStyle;rounded=0;orthogonalLoop=1;jettySize=auto;html=1;exitX=0.5;exitY=1;exitDx=0;exitDy=0;entryX=0.5;entryY=0;entryDx=0;entryDy=0;" edge="1" parent="WIyWlLk6GJQsqaUBKTNV-1" source="GvJyI9alPm6sD9IZf6iM-8" target="GvJyI9alPm6sD9IZf6iM-10">
          <mxGeometry relative="1" as="geometry" />
        </mxCell>
        <mxCell id="GvJyI9alPm6sD9IZf6iM-8" value="&amp;nbsp; &amp;nbsp;Masukkan berapa banyak angka yang ingin anda Sorting :" style="shape=parallelogram;perimeter=parallelogramPerimeter;whiteSpace=wrap;html=1;fixedSize=1;rounded=0;" vertex="1" parent="WIyWlLk6GJQsqaUBKTNV-1">
          <mxGeometry x="150" y="360" width="140" height="60" as="geometry" />
        </mxCell>
        <mxCell id="GvJyI9alPm6sD9IZf6iM-13" value="" style="edgeStyle=orthogonalEdgeStyle;rounded=0;orthogonalLoop=1;jettySize=auto;html=1;" edge="1" parent="WIyWlLk6GJQsqaUBKTNV-1" source="GvJyI9alPm6sD9IZf6iM-10" target="GvJyI9alPm6sD9IZf6iM-12">
          <mxGeometry relative="1" as="geometry" />
        </mxCell>
        <mxCell id="GvJyI9alPm6sD9IZf6iM-10" value="for ( int i = 0 ; i &amp;lt; jumlah ; i++)" style="whiteSpace=wrap;html=1;rounded=0;" vertex="1" parent="WIyWlLk6GJQsqaUBKTNV-1">
          <mxGeometry x="160" y="440" width="115" height="60" as="geometry" />
        </mxCell>
        <mxCell id="GvJyI9alPm6sD9IZf6iM-15" value="" style="edgeStyle=orthogonalEdgeStyle;rounded=0;orthogonalLoop=1;jettySize=auto;html=1;" edge="1" parent="WIyWlLk6GJQsqaUBKTNV-1" source="GvJyI9alPm6sD9IZf6iM-12" target="GvJyI9alPm6sD9IZf6iM-14">
          <mxGeometry relative="1" as="geometry" />
        </mxCell>
        <mxCell id="GvJyI9alPm6sD9IZf6iM-12" value="Masukkan angka ke- &quot; + (i + 1) + &quot;: &quot;" style="shape=parallelogram;perimeter=parallelogramPerimeter;whiteSpace=wrap;html=1;fixedSize=1;rounded=0;" vertex="1" parent="WIyWlLk6GJQsqaUBKTNV-1">
          <mxGeometry x="158.75" y="530" width="116.25" height="40" as="geometry" />
        </mxCell>
        <mxCell id="GvJyI9alPm6sD9IZf6iM-17" value="" style="edgeStyle=orthogonalEdgeStyle;rounded=0;orthogonalLoop=1;jettySize=auto;html=1;" edge="1" parent="WIyWlLk6GJQsqaUBKTNV-1" source="GvJyI9alPm6sD9IZf6iM-14" target="GvJyI9alPm6sD9IZf6iM-16">
          <mxGeometry relative="1" as="geometry" />
        </mxCell>
        <mxCell id="GvJyI9alPm6sD9IZf6iM-14" value="List angka yang akan di Sorting:" style="whiteSpace=wrap;html=1;rounded=0;" vertex="1" parent="WIyWlLk6GJQsqaUBKTNV-1">
          <mxGeometry x="151.88" y="600" width="130" height="60" as="geometry" />
        </mxCell>
        <mxCell id="GvJyI9alPm6sD9IZf6iM-19" value="" style="edgeStyle=orthogonalEdgeStyle;rounded=0;orthogonalLoop=1;jettySize=auto;html=1;" edge="1" parent="WIyWlLk6GJQsqaUBKTNV-1" source="GvJyI9alPm6sD9IZf6iM-16" target="GvJyI9alPm6sD9IZf6iM-18">
          <mxGeometry relative="1" as="geometry" />
        </mxCell>
        <mxCell id="GvJyI9alPm6sD9IZf6iM-16" value="&lt;div&gt;for (int i = 0; i &amp;lt; jumlah; i++){&lt;/div&gt;&lt;div&gt;&amp;nbsp; &amp;nbsp; &amp;nbsp; &amp;nbsp; &amp;nbsp; &amp;nbsp; System.out.print(&quot; &quot; + bilangan[i] + &quot;, &quot;);&lt;/div&gt;" style="whiteSpace=wrap;html=1;rounded=0;" vertex="1" parent="WIyWlLk6GJQsqaUBKTNV-1">
          <mxGeometry x="156.88" y="700" width="120" height="80" as="geometry" />
        </mxCell>
        <mxCell id="GvJyI9alPm6sD9IZf6iM-21" style="edgeStyle=orthogonalEdgeStyle;rounded=0;orthogonalLoop=1;jettySize=auto;html=1;exitX=1;exitY=0.5;exitDx=0;exitDy=0;entryX=0;entryY=0.5;entryDx=0;entryDy=0;" edge="1" parent="WIyWlLk6GJQsqaUBKTNV-1" source="GvJyI9alPm6sD9IZf6iM-18" target="GvJyI9alPm6sD9IZf6iM-20">
          <mxGeometry relative="1" as="geometry" />
        </mxCell>
        <mxCell id="GvJyI9alPm6sD9IZf6iM-34" style="edgeStyle=orthogonalEdgeStyle;rounded=0;orthogonalLoop=1;jettySize=auto;html=1;exitX=0.5;exitY=1;exitDx=0;exitDy=0;entryX=0.5;entryY=0;entryDx=0;entryDy=0;entryPerimeter=0;" edge="1" parent="WIyWlLk6GJQsqaUBKTNV-1" source="GvJyI9alPm6sD9IZf6iM-18" target="GvJyI9alPm6sD9IZf6iM-31">
          <mxGeometry relative="1" as="geometry" />
        </mxCell>
        <mxCell id="GvJyI9alPm6sD9IZf6iM-18" value="&lt;div&gt;System.out.println(&quot; Hasil Sorting: &quot;);&lt;/div&gt;&lt;div&gt;&amp;nbsp; &amp;nbsp; &amp;nbsp; &amp;nbsp; for(int i =0; i &amp;lt; bilangan.length; i++){&lt;/div&gt;&lt;div&gt;&amp;nbsp; &amp;nbsp; &amp;nbsp; &amp;nbsp; &amp;nbsp; &amp;nbsp; System.out.print(&quot; &quot; +bilangan[i] + &quot; &quot;)&lt;/div&gt;" style="whiteSpace=wrap;html=1;rounded=0;" vertex="1" parent="WIyWlLk6GJQsqaUBKTNV-1">
          <mxGeometry x="116.88" y="820" width="200" height="80" as="geometry" />
        </mxCell>
        <mxCell id="GvJyI9alPm6sD9IZf6iM-23" value="" style="edgeStyle=orthogonalEdgeStyle;rounded=0;orthogonalLoop=1;jettySize=auto;html=1;" edge="1" parent="WIyWlLk6GJQsqaUBKTNV-1" source="GvJyI9alPm6sD9IZf6iM-20" target="GvJyI9alPm6sD9IZf6iM-22">
          <mxGeometry relative="1" as="geometry" />
        </mxCell>
        <mxCell id="GvJyI9alPm6sD9IZf6iM-20" value="public static void selectionSort(int[] bilangan)" style="whiteSpace=wrap;html=1;rounded=0;" vertex="1" parent="WIyWlLk6GJQsqaUBKTNV-1">
          <mxGeometry x="354" y="830" width="120" height="60" as="geometry" />
        </mxCell>
        <mxCell id="GvJyI9alPm6sD9IZf6iM-25" style="edgeStyle=orthogonalEdgeStyle;rounded=0;orthogonalLoop=1;jettySize=auto;html=1;entryX=0;entryY=0.5;entryDx=0;entryDy=0;" edge="1" parent="WIyWlLk6GJQsqaUBKTNV-1" source="GvJyI9alPm6sD9IZf6iM-22" target="GvJyI9alPm6sD9IZf6iM-24">
          <mxGeometry relative="1" as="geometry" />
        </mxCell>
        <mxCell id="GvJyI9alPm6sD9IZf6iM-22" value="&lt;div&gt;for (int i = 0; i &amp;lt; bilangan.length - 1 ; i++){&lt;/div&gt;&lt;div&gt;&amp;nbsp; &amp;nbsp; &amp;nbsp; &amp;nbsp; &amp;nbsp; &amp;nbsp;int index =i;&lt;/div&gt;" style="whiteSpace=wrap;html=1;rounded=0;" vertex="1" parent="WIyWlLk6GJQsqaUBKTNV-1">
          <mxGeometry x="520" y="830" width="120" height="60" as="geometry" />
        </mxCell>
        <mxCell id="GvJyI9alPm6sD9IZf6iM-28" value="" style="edgeStyle=orthogonalEdgeStyle;rounded=0;orthogonalLoop=1;jettySize=auto;html=1;" edge="1" parent="WIyWlLk6GJQsqaUBKTNV-1" source="GvJyI9alPm6sD9IZf6iM-24" target="GvJyI9alPm6sD9IZf6iM-27">
          <mxGeometry relative="1" as="geometry" />
        </mxCell>
        <mxCell id="GvJyI9alPm6sD9IZf6iM-24" value="for ( int j = i + 1; j&amp;lt; bilangan.length; j++" style="whiteSpace=wrap;html=1;rounded=0;" vertex="1" parent="WIyWlLk6GJQsqaUBKTNV-1">
          <mxGeometry x="670" y="830" width="130" height="60" as="geometry" />
        </mxCell>
        <mxCell id="GvJyI9alPm6sD9IZf6iM-30" value="" style="edgeStyle=orthogonalEdgeStyle;rounded=0;orthogonalLoop=1;jettySize=auto;html=1;" edge="1" parent="WIyWlLk6GJQsqaUBKTNV-1" source="GvJyI9alPm6sD9IZf6iM-27" target="GvJyI9alPm6sD9IZf6iM-29">
          <mxGeometry relative="1" as="geometry" />
        </mxCell>
        <mxCell id="GvJyI9alPm6sD9IZf6iM-27" value="&amp;nbsp;if (bilangan [j] &amp;gt; bilangan[index])" style="rhombus;whiteSpace=wrap;html=1;rounded=0;" vertex="1" parent="WIyWlLk6GJQsqaUBKTNV-1">
          <mxGeometry x="690" y="940" width="90" height="80" as="geometry" />
        </mxCell>
        <mxCell id="GvJyI9alPm6sD9IZf6iM-29" value="&lt;div&gt;&amp;nbsp;int smallerNumber = bilangan[index];&amp;nbsp; &amp;nbsp; &amp;nbsp;&lt;/div&gt;&lt;div&gt;&amp;nbsp; &amp;nbsp; &amp;nbsp;bilangan [index] = bilangan [i];&lt;/div&gt;&lt;div&gt;&amp;nbsp; &amp;nbsp; &amp;nbsp; bilangan [i] = smallerNumber;&amp;nbsp;&lt;/div&gt;" style="whiteSpace=wrap;html=1;rounded=0;" vertex="1" parent="WIyWlLk6GJQsqaUBKTNV-1">
          <mxGeometry x="640" y="1050" width="190" height="70" as="geometry" />
        </mxCell>
        <mxCell id="GvJyI9alPm6sD9IZf6iM-31" value="end" style="strokeWidth=2;html=1;shape=mxgraph.flowchart.start_1;whiteSpace=wrap;" vertex="1" parent="WIyWlLk6GJQsqaUBKTNV-1">
          <mxGeometry x="166.88" y="950" width="100" height="60" as="geometry" />
        </mxCell>
      </root>
    </mxGraphModel>
  </diagram>
</mxfile>
